<svg xmlns="http://www.w3.org/2000/svg" height="132.57" width="210">
  <path d="M0 132.57a105 105 0 0 1 8.9-42.305l41.186 18.13A60 60 0 0 0 45 132.57z" fill="#932784"/>
  <path d="M7.216 81.97a110.1 110.1 0 0 1 46.448-46.8l20.982 39.81a65.1 65.1 0 0 0-27.464 27.671z" fill="#8dbd3f"/>
  <path d="M50.292 10.794A133.5 133.5 0 0 1 89.267 0l5.303 44.686a88.5 88.5 0 0 0-25.837 7.156z" fill="#ed1c24"/>
  <path d="M98.783 20.242a112.5 112.5 0 0 1 33.92 3.292l-11.08 43.614a67.5 67.5 0 0 0-20.353-1.975z" fill="#f58220"/>
  <path d="M138.024 30.058a107.7 107.7 0 0 1 38.503 21.994l-29.886 33.642a62.7 62.7 0 0 0-22.416-12.804z" fill="#309f41"/>
  <path d="M192.94 45.29a123.9 123.9 0 0 1 9.095 10.238L166.792 83.51a78.9 78.9 0 0 0-5.791-6.52z" fill="#fff200"/>
  <path d="M191.17 72.573A105 105 0 0 1 210 132.57h-45a60 60 0 0 0-10.76-34.284z" fill="#0089d0"/>
  <path d="M63 132.57a42 42 0 1 1 84 0h-45z" fill="#23408f"/>
</svg>
